<?xml version="1.0" encoding="utf-8"?>
<!-- Generator: Adobe Illustrator 16.0.0, SVG Export Plug-In . SVG Version: 6.00 Build 0)  -->
<!DOCTYPE svg PUBLIC "-//W3C//DTD SVG 1.1//EN" "http://www.w3.org/Graphics/SVG/1.1/DTD/svg11.dtd">
<svg version="1.1" id="Слой_1" xmlns="http://www.w3.org/2000/svg" xmlns:xlink="http://www.w3.org/1999/xlink" x="0px" y="0px"
	 width="85.625px" height="34.5px" viewBox="-13.125 0.375 85.625 34.5" enable-background="new -13.125 0.375 85.625 34.5"
	 xml:space="preserve">
<g>
	<path fill-rule="evenodd" clip-rule="evenodd" fill="#FFFFFF" d="M11.916,19.721V13.67h4.391v6.051H11.916L11.916,19.721z
		 M57.397,11.343h-1.717v-0.267c0-0.126-0.022-0.207-0.064-0.239c-0.043-0.035-0.117-0.051-0.222-0.051
		c-0.11,0-0.193,0.021-0.252,0.07c-0.056,0.044-0.085,0.114-0.085,0.208c0,0.121,0.032,0.213,0.097,0.274
		c0.062,0.061,0.236,0.134,0.522,0.221c0.825,0.249,1.341,0.453,1.555,0.613c0.216,0.159,0.322,0.417,0.322,0.772
		c0,0.257-0.06,0.448-0.178,0.569c-0.119,0.123-0.349,0.226-0.688,0.308c-0.34,0.083-0.734,0.125-1.186,0.125
		c-0.499,0-0.918-0.048-1.269-0.143c-0.351-0.096-0.58-0.218-0.688-0.365c-0.105-0.149-0.161-0.357-0.161-0.629v-0.237h1.717v0.44
		c0,0.137,0.022,0.223,0.07,0.262c0.052,0.038,0.137,0.058,0.259,0.058c0.124,0,0.215-0.024,0.275-0.074
		c0.062-0.049,0.089-0.122,0.089-0.219c0-0.213-0.057-0.354-0.168-0.418c-0.117-0.066-0.409-0.175-0.869-0.329
		c-0.459-0.155-0.764-0.268-0.913-0.338c-0.147-0.07-0.271-0.167-0.369-0.291c-0.1-0.125-0.147-0.282-0.147-0.475
		c0-0.277,0.068-0.479,0.208-0.608c0.139-0.129,0.364-0.229,0.674-0.301c0.312-0.071,0.685-0.108,1.124-0.108
		c0.481,0,0.891,0.04,1.229,0.119c0.339,0.079,0.563,0.179,0.675,0.299c0.106,0.121,0.16,0.325,0.16,0.611V11.343L57.397,11.343z
		 M45.416,11.343h-1.717v-0.267c0-0.126-0.022-0.207-0.067-0.239c-0.042-0.035-0.116-0.051-0.221-0.051
		c-0.109,0-0.193,0.021-0.251,0.07c-0.057,0.044-0.087,0.114-0.087,0.208c0,0.121,0.031,0.213,0.097,0.274
		c0.063,0.061,0.237,0.134,0.525,0.221c0.822,0.249,1.34,0.453,1.554,0.613c0.215,0.159,0.321,0.417,0.321,0.772
		c0,0.257-0.06,0.448-0.178,0.569c-0.118,0.123-0.35,0.226-0.688,0.308c-0.341,0.083-0.734,0.125-1.187,0.125
		c-0.495,0-0.917-0.048-1.267-0.143c-0.352-0.096-0.581-0.218-0.688-0.365c-0.109-0.149-0.161-0.357-0.161-0.629v-0.237h1.716v0.44
		c0,0.137,0.024,0.223,0.073,0.262c0.049,0.038,0.134,0.058,0.258,0.058c0.121,0,0.214-0.024,0.273-0.074
		c0.061-0.049,0.089-0.122,0.089-0.219c0-0.213-0.056-0.354-0.17-0.418c-0.117-0.066-0.406-0.175-0.864-0.329
		c-0.461-0.155-0.767-0.268-0.917-0.338c-0.147-0.07-0.273-0.167-0.369-0.291c-0.1-0.125-0.146-0.282-0.146-0.475
		c0-0.277,0.068-0.479,0.207-0.608c0.139-0.129,0.365-0.229,0.673-0.301c0.313-0.071,0.688-0.108,1.128-0.108
		c0.479,0,0.89,0.04,1.227,0.119c0.338,0.079,0.563,0.179,0.673,0.299c0.111,0.121,0.164,0.325,0.164,0.611V11.343L45.416,11.343z
		 M45.799,10.328h0.003l0.808,3.542h2.297c0.27-0.961,0.439-1.595,0.514-1.897c0.161,0.708,0.348,1.34,0.557,1.897h2.313
		l0.813-3.587c0.531-1.331,3.141-2.227,8.347-1.827c-3.487-0.068-6.062,0.212-7.207,1.541c2.774-1.335,4.524-0.592,6.867-0.849
		c-3.063,0.252-8.208,0.28-1.85,0.59c-0.877,0.107-2.529-0.024-3.799-0.136c1.286,0.264,2.621,0.413,4.044,0.393
		c-0.764,0.031-1.636,0.048-1.803,0.044c-0.367-0.01,0.255,0.053,0.256,0.059c0.852,0.017,2.639-0.111,3.433-0.26
		c-1.157,0.118-2.47,0.125-3.628,0.014c1.895,0.004,3.74-0.035,5.397-0.524c-2.243,0.435-4.278,0.284-5.411,0.179
		c2.639,0.002,6.38-0.578,8.164-1.054c-2.5,0.423-5.577,0.703-8.226,0.539c4.609-0.232,9.808-0.71,13.407-2.156
		c-5.38,1.211-15.687,0.224-18.836,2.297c-0.297,0.196-0.896,0.705-0.958,1.157c-0.234,0.825-0.401,1.668-0.5,2.529l-1.476-6.576
		l-1.364,6.489l-0.194-1.221l-0.188-1.265h-0.001c-0.09-0.44-0.662-0.924-0.952-1.114c-3.148-2.074-13.454-1.086-18.834-2.297
		c3.599,1.446,8.796,1.924,13.407,2.156c-2.647,0.164-5.726-0.116-8.224-0.539c1.783,0.477,5.523,1.056,8.163,1.054
		c-1.135,0.105-3.168,0.256-5.411-0.179c1.657,0.489,3.501,0.528,5.396,0.524c-1.158,0.111-2.47,0.104-3.63-0.014
		c0.797,0.149,2.584,0.277,3.435,0.26c0-0.006,0.622-0.069,0.257-0.059c-0.168,0.004-1.039-0.013-1.804-0.044
		c1.424,0.02,2.761-0.129,4.046-0.393c-1.27,0.112-2.925,0.243-3.802,0.136c6.361-0.31,1.215-0.338-1.848-0.59
		c2.343,0.257,4.094-0.486,6.868,0.849c-1.148-1.329-3.721-1.609-7.209-1.541C42.699,8.052,45.311,8.973,45.799,10.328
		L45.799,10.328z M2.594,13.491C6.853,8.992,22.106,1.118,23.518,7.84c0.713-0.513,10.711-6.003,11.273-6.319
		c-17.012,0.312-30.6,8.551-37.719,14.233c-2.86,0.279-5.153,0.526-6.483,0.673c0,0,0,0,0,0c1.369-0.104,5.705,0.893,3.996,2.831
		c-2.983,4.707-6.715,13.457-6.198,14.12c4.881-14.226,14.255-16.914,21.859-15.346c-1.162-0.258-2.753-0.578-4.933-0.972
		c-0.815-0.146-1.389-0.314-1.758-0.492C2.632,16.119,0.192,16.204,2.594,13.491L2.594,13.491z M41.242,19.721v-4.957h16.583v0.876
		H45.043v1.08h7.445v0.854h-7.445v1.219h12.975v0.928H41.242L41.242,19.721z M33.348,15.619H24.74v1.372h8.608
		c0.65,0,1.102-0.031,1.345-0.093c0.245-0.06,0.366-0.165,0.366-0.311v-0.569c0-0.144-0.121-0.247-0.366-0.308
		C34.449,15.65,33.998,15.619,33.348,15.619L33.348,15.619z M21.03,19.721v-4.957h13.919c1.273,0,2.199,0.076,2.765,0.227
		c0.575,0.15,0.859,0.396,0.859,0.736v1.165c0,0.338-0.284,0.579-0.859,0.729c-0.565,0.148-1.491,0.223-2.765,0.223H32.83
		l7.353,1.877h-5.408l-6.483-1.877H24.74v1.877H21.03L21.03,19.721z"/>
</g>
</svg>
