<?xml version="1.0" encoding="utf-8"?>
<!-- Generator: Adobe Illustrator 16.0.0, SVG Export Plug-In . SVG Version: 6.00 Build 0)  -->
<!DOCTYPE svg PUBLIC "-//W3C//DTD SVG 1.1//EN" "http://www.w3.org/Graphics/SVG/1.1/DTD/svg11.dtd">
<svg version="1.1" id="Слой_2" xmlns="http://www.w3.org/2000/svg" xmlns:xlink="http://www.w3.org/1999/xlink" x="0px" y="0px"
	 width="303px" height="387px" viewBox="0 0 303 387" enable-background="new 0 0 303 387" xml:space="preserve">
<g>
	<path fill="#12F500" stroke="#9AB7CD" d="M16.57,87.721c0,0,1.026-11.702,7.104-17.632c7.736-7.547,21.093-10.993,31.722-8.786
		c-0.639-0.13-1.442-0.104-2.102-0.2c-11.174,1.682-17.678,5.444-24.217,11.39c-8.806,8.006-6.954,15.229-6.954,15.229L16.57,87.721
		L16.57,87.721z"/>
	<path fill="#12F500" stroke="#9AB7CD" d="M154.563,347.894c0,0-3.264-28.904-5.604-44.629c-2.802-18.813-1.201-24.016-3.603-40.227
		s-5.403-32.226-11.008-61.644c-3.945-20.72-11.516-79.857-14.409-96.463c-3.128-17.962-9.206-73.647-31.821-74.45
		c-10.253-0.361-22.414,2.001-22.414,2.001c19.813-2.2,21.701,1.535,26.817,6.004c17.411,15.212,24.016,96.063,30.62,139.895
		c6.685,44.364,12.408,60.639,15.01,87.057c1.481,15.045,4.604,39.629,6.605,57.641c0.61,5.502,3.602,20.414,3.602,20.414
		s-5.003,1.803-18.013-2.803c-9.942-3.52-13.081-5.118-15.984-7.437c2.726,2.248,7.899,6.261,12.784,8.636
		C134.547,345.491,141.954,347.894,154.563,347.894z"/>
	<path fill="#12F500" stroke="#9AB7CD" d="M171.773,214.807l14.209,8.805l0.801,0.399c0,0,10.406,7.007,25.617,13.21l2.398,8.604
		c0,0-28.021-12.81-44.828-24.218c-11.666-7.918-37.119-28.769-37.119-28.769l-0.108-1.402c-0.46-2.809-0.696-3.308-1.201-6.604
		l-0.142-1.19c0,0,7.947,6.146,14.753,12.35c6.495,5.923,24.616,18.409,24.616,18.409L171.773,214.807z"/>
	<path fill="#12F500" stroke="#9AB7CD" d="M241.418,120.743c7.117,16.466,14.109,41.428,14.109,41.428
		c0,1.501,1.645,20.955,0,35.423c-1.5,13.209-6.303,30.021-6.303,30.021l-4.604-7.004c0,0,6.002-19.414,6.403-26.617
		c0,0,3.002-16.512,2.002-23.415c-0.539-3.721-0.75-9.641-1.399-13.409c-1.158-6.696-18.414-46.631-22.416-54.438
		c-4.003-7.805-22.914-49.005-28.218-55.637c-15.213-19.012-41.028-30.42-42.629-30.62l3.802-1.701c0,0,30.921,15.012,38.726,26.118
		c5.604,7.97,21.014,38.727,21.014,38.727S236.166,108.585,241.418,120.743z"/>
	<path fill="#12F500" stroke="#9AB7CD" d="M241.418,222.813c0,0,9.438,15.127,11.609,26.817c2.602,14.009,0.896,36.146,0.896,36.146
		s2.596-1.176,3.574-1.49l1.328-5.938c0,0,1.197-20.714-1.201-30.021c-2.396-9.31-8.4-20.716-8.4-20.716l-4.604-7.004
		L241.418,222.813z"/>
	<path fill="#12F500" stroke="#9AB7CD" d="M214.803,245.825c0,0,2.934,15.364,3.4,24.018c0.802,14.81-0.602,30.619-1.602,31.021
		l0.44,6.666c1.501-0.934,4.837-2.938,4.837-2.938s2.727-23.938,1.928-39.148c-0.552-10.407-5.203-30.219-6.008-31.621l-5.4,3.402
		L214.803,245.825z"/>
	<path fill="#12F500" stroke="#9AB7CD" d="M217.046,307.528c-1.803,1.119-3.157,2.002-3.846,2.541
		c-8.205,6.402-38.025,31.818-38.025,31.818s1.001,0.398,4.402-1s10.807-7.604,13.409-9.006c2.602-1.399,2.921-2.229,12.209-5.4
		c15.81-5.404,24.416-13.213,29.418-16.215c5.003-3,28.619-25.616,28.619-25.616s-0.801-0.601-3.203-0.799
		c-0.627-0.054-1.459,0.086-2.528,0.435l1.328-5.938c0,0,1.051,0.15,3.604,0c3.596-0.211,3.301,4.203,3.301,4.203
		s-14.848,17.7-20.313,23.115c-6.59,6.527-20.414,17.611-30.021,21.813c-9.605,4.203-21.521,8.674-22.813,9.205
		c-3.403,1.402-10.808,7.205-15.211,8.205s-13.408,1.805-13.408,1.805l-0.149-0.586c4.632-3.061,9.729-7.258,13.357-10.424
		c7.805-6.805,14.539-12.291,18.413-16.611c5.203-5.805,8.205-10.207,12.608-13.811c4.402-3.604,7.404-4,8.404-4.4L217.046,307.528z
		"/>
	<path fill="#12F500" stroke="#9AB7CD" d="M116.941,336.781l-0.405,1.006l-13.208,13.51l-22.516-47.133l18.612-23.113l0.846-1.535
		c-0.432-2.848-0.876-5.754-1.333-8.688c0,0-17.824,24.23-22.628,27.033l1.15,14.268l3.363,7.027l0.105-0.107l14.322,30.213
		l-0.018,0.018l2.692,5.627l-16.287,9.023l0.677,8.387c0,0,8.405-4.402,20.013-13.606c11.608-9.207,16.012-17.214,16.012-17.214
		l1.281-2.357C118.708,338.406,117.81,337.612,116.941,336.781z"/>
	<path fill="#12F500" stroke="#9AB7CD" d="M240.332,156.957c3.121,4.292,8.752,12.346,12.887,18.293
		c0.039-1.611-0.01-2.997-0.189-3.971c0,0-8.604-12.606-23.813-32.62c-4.457-5.863-17.359-22.017-17.359-22.017l0.641,3.675
		c2.58,2.913,5.773,6.595,8.508,9.973C226.119,136.615,234.998,149.623,240.332,156.957z"/>
	<path id="bind_1_" fill="#12F500" stroke="#9AB7CD" d="M167.718,114.991c0,0,4.673,47.884,5.058,57.338
		c1.098,26.838-1.846,41.666-1.846,41.666l-2.563-1.267c0,0,3.557-21.089,1.896-46.154c-0.969-14.576-5.277-56.672-5.277-56.672
		L167.718,114.991z"/>
	<path id="detail" fill="#12F500" stroke="#9AB7CD" d="M216.801,84.118C211.848,73.16,198.189,59.9,198.189,59.9
		s-1.455-5.735-8.207-14.408c-7.551-9.707-18.609-14.812-18.609-14.812c-5.453-9.006-12.707-13.909-12.707-13.909l-2.305,0.7
		c0,0,6.205,4.604,8.605,7.806c2.401,3.202,3.201,4.403,3.201,4.403s-14.009-1.201-25.017,1.201
		c-11.007,2.402-29.02,12.208-30.22,12.808c-1.201,0.602-8.107,0.68-8.107,0.68l2.492,5.333c0,0,9.017,1.393,16.622,5.997
		c4.419,2.675,9.807,8.807,9.807,8.807s-5.804,35.222,3.201,59.239c5.887,15.693,10.359,24.327,33.213,41.342
		c-0.151-2.102-0.354-4.626-0.595-7.421c-5.606-4.228-21.005-16.872-27.814-32.92c-7.585-17.879-3.002-54.536-3.002-54.536
		l3.002,3.703c12.658,16.521,19.898,29.397,23.329,36.165l2.638,4.913c0,0,0.033,0.337,0.094,0.949l9.107,22.62l6.016-2.669
		c0,0-12.563-35.761-32.978-61.978c-15.119-19.418-33.021-26.818-33.021-26.818s14.209-9.207,29.019-13.009l0.701-0.102
		c8.549-2.193,23.514-1.899,23.514-1.899s20.813,13.209,28.42,37.825c7.604,24.615,10.304,54.458,10.304,54.458l4.105-1.823
		l-1.148-6.605c-0.451-16.011-7.656-40.227-7.656-40.227l-2.399-7.005c0,0,11.408,10.808,16.411,26.018
		c6.171,18.76,4.453,34.873,4.453,34.872c1.188,1.507,2.951,3.706,2.951,3.706S229.607,112.443,216.801,84.118z"/>
</g>
<path fill="#FFFFFF" stroke="#9AB7CD" d="M223.809,265.438c-0.55-10.408-5.205-30.219-6.006-31.621c0,0,6.605-4.604,12.01-6.805
	c5.404-2.199,11.605-4.201,11.605-4.201s9.438,15.127,11.609,26.818c2.602,14.008,0.896,36.146,0.896,36.146
	c-2.947,1.428-6.9,3.68-12.104,6.879c-6.133,3.771-13.946,8.342-19.938,11.934C221.883,304.589,224.607,280.648,223.809,265.438z"/>
<g>
	<ellipse fill="none" stroke="#9AB7CD" cx="259.432" cy="302.063" rx="7.504" ry="6.904"/>
	<path fill="none" stroke="#9AB7CD" d="M248.324,303.565c0,0,4.889,9.971,13.357,7.805c6.451-1.65,8.854-7.805,7.057-12.906
		c-1.803-5.104-9.908-6.905-9.908-6.905"/>
	<path fill="none" stroke="#9AB7CD" d="M268.438,306.413l8.855-15.457c0,0,0.9-5.703-2.703-8.406
		c-2.475-1.856-6.002-3.604-6.002-3.604"/>
</g>
<path fill="none" stroke="#9AB7CD" d="M144.755,323.075c-2.002-18.012-5.124-42.595-6.605-57.64
	c-2.602-26.418-8.325-42.69-15.01-87.058c-6.604-43.83-13.209-124.685-30.62-139.895c-5.116-4.469-9.806-9.405-27.618-5.402
	C57.087,34.841,31.52,47.725,22.874,56.5C9.465,70.109,8.665,87.721,8.665,87.721h7.605c0,0,1.727-12.083,7.805-18.012
	C32.28,61.704,47.49,58.9,58.298,61.902c10.808,3.002,9.006,6.006,9.606,11.408c0.6,5.404,3.956,40.106,8.005,61.643
	c4.403,23.415,8.806,54.836,17.612,103.27c7.008,38.545,12.207,83.653,15.811,89.657c3.603,6.004,10.206,8.809,22.214,13.209
	c12.879,4.723,16.812,2.4,16.812,2.4S145.366,328.577,144.755,323.075z"/>
<path fill="#FFFFFF" stroke="#9AB7CD" d="M221.906,79.615c0,0-10.207-30.92-15.91-39.024c0,0,1.199-1.801-0.602-6.304
	c-1.804-4.505-13.813-18.313-22.519-20.113c-8.705-1.801-20.713,0.6-20.713,0.6s30.921,15.011,38.729,26.118
	C206.493,48.86,221.906,79.615,221.906,79.615z"/>
<path fill="none" stroke="#9AB7CD" d="M72.707,115.339c9.606,20.414,40.828,54.437,50.434,63.042"/>
<path fill="#FFFFFF" stroke="#9AB7CD" d="M58.297,61.904c-1.229-0.341-2.521-0.598-3.847-0.79
	c-11.174,1.681-18.434,5.055-24.973,10.997c-8.806,8.007-6.804,15.611-6.804,15.611h30.02c0,0-1.201-4.403,1.601-10.407
	c2.088-4.475,7.665-10.025,10.576-12.746C63.491,63.642,61.424,62.773,58.297,61.904z"/>
<path fill="#FFFFFF" stroke="#9AB7CD" d="M133.748,347.093c10.264,3.988,16.611,3.807,21.814,3.002
	c5.203-0.801,15.484-9.066,21.61-14.407c7.808-6.806,14.539-12.291,18.413-16.612c5.203-5.804,8.205-10.207,12.605-13.811
	c4.402-3.604,7.404-4,8.404-4.4c1-0.398,2.402-16.212,1.604-31.021c-0.472-8.649-3.401-24.018-3.401-24.018
	s-28.021-12.81-44.828-24.218c-11.666-7.918-37.119-28.769-37.119-28.769c0.537,3.277,1.04,6.17,1.492,8.556
	c5.604,29.418,8.606,45.433,11.008,61.644s0.801,21.414,3.603,40.227c2.342,15.725,5.604,44.629,5.604,44.629
	c-11.918,0-20.404-2.728-27.417-6.004c-0.406-0.188-8.606-4.803-13.609-8.809C113.535,333.081,119.337,341.49,133.748,347.093z"/>
<path fill="#FFFFFF" stroke="#9AB7CD" d="M265.734,282.55c0,0,0.301-4.202-3.301-4.202c-3.604,0-3.604,0-3.604,0
	s1.2-20.714-1.201-30.021c-2.399-9.31-8.403-20.716-8.403-20.716s4.803-16.813,6.303-30.021c1.646-14.469,0-33.922,0-35.423
	s12.609,48.632,13.813,63.644c0.892,11.104,6.306,27.616,4.203,38.728C271.686,274.346,265.734,282.55,265.734,282.55z"/>
<path fill="#FFFFFF" stroke="#9AB7CD" d="M175.175,341.89c0,0,29.82-25.416,38.025-31.818c2.964-2.313,18.211-11.008,28.62-17.41
	c10.406-6.404,15.809-9.009,18.211-8.808c2.402,0.198,3.203,0.799,3.203,0.799s-23.617,22.616-28.619,25.616
	c-5.004,3.004-13.61,10.811-29.42,16.215c-9.287,3.172-9.605,4.002-12.209,5.4c-2.604,1.398-10.006,7.604-13.408,9.006
	C176.176,342.288,175.175,341.89,175.175,341.89z"/>
<path fill="#FFFFFF" stroke="#9AB7CD" d="M251.627,157.167c-1.158-6.696-18.414-46.631-22.416-54.438
	c-4.003-7.805-22.914-49.005-28.218-55.637c-15.212-19.012-41.028-30.42-42.63-30.62c0,0,7.555,5.204,13.008,14.209
	c0,0,11.059,5.104,18.611,14.812c6.752,8.673,8.207,14.408,8.207,14.408s13.658,13.26,18.608,24.218
	c12.81,28.324,8.812,49.186,8.812,49.186c1.431,1.829,2.688,3.454,3.602,4.65c15.21,20.013,23.816,32.622,23.816,32.622
	C252.627,160.169,252.277,160.937,251.627,157.167z"/>
<path fill="none" stroke="#9AB7CD" d="M104.827,44.37c-1.685-3.208-3.557-6.021-5.644-8.26c0,0,19.711-8.881,28.36-11.633
	c13.209-4.203,28.818-7.005,28.818-7.005s6.205,4.604,8.604,7.806c2.401,3.202,3.201,4.403,3.201,4.403s-14.009-1.201-25.017,1.201
	c-11.007,2.401-29.02,12.208-30.22,12.808C111.733,44.292,104.827,44.37,104.827,44.37z"/>
<path fill="#1A171B" stroke="#9AB7CD" d="M163.968,346.694c0,0,11.808,7.205,22.015,6.203c10.207-1,24.416-6.006,33.422-14.813
	c9.01-8.807,24.22-27.617,26.021-32.42c0,0-20.413,17.609-30.021,21.813c-9.604,4.203-21.521,8.674-22.813,9.205
	c-3.399,1.402-10.807,7.205-15.211,8.205C172.973,345.892,163.968,346.694,163.968,346.694z"/>
<path fill="none" stroke="#9AB7CD" d="M171.773,77.915c8.604,21.612,15.914,55.863,15.914,55.863l-4.754,2.11
	c0,0-12.563-35.76-32.979-61.978c-15.119-19.418-33.021-26.818-33.021-26.818s14.209-9.207,29.019-13.009
	C145.956,34.085,163.167,56.3,171.773,77.915z"/>
<path fill="#FFFFFF" stroke="#9AB7CD" d="M206.852,125.272c0,0-11.939-33.09-23.271-51.358c-20.288-32.724-36.8-39.327-36.8-39.327
	s16.737,22.365,24.993,43.329c8.521,21.646,15.916,55.863,15.916,55.863L206.852,125.272"/>
<path fill="#FFFFFF" stroke="#9AB7CD" d="M183.581,73.912c11.396,18.229,23.271,51.358,23.271,51.358l2.041-0.903
	c0,0-2.697-29.843-10.301-54.458c-7.605-24.616-28.421-37.825-28.421-37.825s-15.666-0.194-24.215,2.001
	C145.956,34.085,162.568,40.29,183.581,73.912z"/>
<path id="area-6" fill="none" stroke="#9AB7CD" d="M206.852,125.272l2.041-0.903c0,0-2.697-29.843-10.301-54.458
	c-7.605-24.616-28.421-37.825-28.421-37.825s-15.666-0.194-24.215,2.001 M145.956,34.085c-14.81,3.802-29.019,13.009-29.019,13.009
	s17.901,7.4,33.021,26.818c20.414,26.218,32.976,61.978,32.976,61.978l4.754-2.11c0,0-0.008-0.036-0.017-0.077
	c0.009,0.04,0.017,0.076,0.017,0.076l19.164-8.507"/>
<line fill="none" stroke="#9AB7CD" x1="133.748" y1="64.506" x2="138.75" y2="70.209"/>
<line fill="none" stroke="#9AB7CD" x1="198.191" y1="59.903" x2="201.792" y2="68.708"/>
<path fill="#FFFFFF" stroke="#9AB7CD" d="M109.332,327.88c-2.598-3.711-5.385-24.089-9.062-48.364l-0.846,1.534l-18.612,23.113
	l22.516,47.133l13.208-13.51l0.405-1.006C113.773,333.757,110.98,330.235,109.332,327.88z"/>
<polygon fill="#FFFFFF" stroke="#9AB7CD" points="80.927,319.044 77.36,311.519 78.261,322.007 80.511,319.476 "/>
<polygon fill="#FFFFFF" stroke="#9AB7CD" points="97.923,354.899 95.249,349.258 94.622,349.796 82.313,361.804 81.695,361.952 
	81.863,363.905 "/>
<polygon fill="none" stroke="#9AB7CD" points="94.622,349.796 95.249,349.258 80.927,319.044 80.511,319.476 78.261,322.007 
	81.695,361.952 82.313,361.804 "/>
<path fill="#FFFFFF" stroke="#9AB7CD" d="M168.367,115.794c0.697,4.788,1.717,15.691,2.563,25.431l6.541-2.827L168.367,115.794z"/>
<path fill="#FFFFFF" stroke="#9AB7CD" d="M196.689,189.333c-1.5-26.474-8.67-55.617-8.67-55.617l-10.549,4.683l-6.541,2.827
	c0.854,9.802,1.527,18.419,1.527,18.419l0.516,7.384c0,0,0.6,16.208,0.6,25.417c0,7.006-2.002,22.414-2.002,22.414l15.188,9.113
	c-0.01,0.047-0.021,0.102-0.029,0.146c0,0,4.069,2.738,10.84,6.311C197.752,224.533,197.912,210.918,196.689,189.333z"/>
<path fill="#FFFFFF" stroke="#9AB7CD" d="M206.889,125.34l-18.869,8.375c0,0,7.17,29.145,8.67,55.617
	c1.227,21.585,1.063,35.201,0.881,41.095c4.059,2.14,9.078,4.574,14.775,6.898c0,0,0.037-0.023,0.092-0.063
	c1.072-0.711,12.186-8.053,17.32-10.146c5.188-2.111,11.465-4.591,11.959-4.783c0.021-0.008,0.049-0.021,0.049-0.021l2.801-1.602
	c0,0,2.371-8.771,4.283-16.755c-2.246-6.974-6.957-20.82-12.711-33.386C221.883,139.445,206.889,125.34,206.889,125.34z"/>
<path fill="#FFFFFF" stroke="#9AB7CD" d="M253.33,175.318c-4.137-5.945-9.766-14.001-12.887-18.293
	c-5.334-7.333-14.213-20.341-19.334-26.667c-2.734-3.378-5.928-7.059-8.508-9.971l0.404,2.334l-0.063-0.07l-6.06,2.689
	c0,0,14.993,14.104,29.25,45.236c5.755,12.563,10.466,26.414,12.712,33.385c0.913-3.816,1.727-7.454,2.119-9.863
	C251.098,193.326,253.154,182.657,253.33,175.318z"/>
<path fill="#FFFFFF" stroke="#9AB7CD" d="M223.921,130.667c0,0,0.769-17.863-5.403-36.623c-5.002-15.21-17.41-27.02-17.41-27.02
	l2.4,7.005c0,0,8.205,28.218,8.655,44.229C216.6,122.493,223.921,130.667,223.921,130.667z"/>
<path id="area-2" fill="#FFFFFF" stroke="#9AB7CD" d="M240.113,157.024c-5.334-7.333-14.213-20.341-19.334-26.667
	c-2.734-3.378-5.928-7.059-8.508-9.971l0.406,2.334l-0.064-0.07l-6.059,2.689l-18.867,8.375v0.001l-10.549,4.683v-0.001
	l-9.104-22.604c0.696,4.789,1.718,15.693,2.563,25.433c0.854,9.802,1.529,18.419,1.529,18.419l0.514,7.384
	c0,0,0.602,16.208,0.602,25.417c0,7.006-2.002,22.414-2.002,22.414l15.188,9.113c-0.011,0.047-0.021,0.103-0.031,0.146
	c0,0,4.07,2.738,10.842,6.311l0.003-0.002c4.056,2.139,9.075,4.574,14.772,6.898c0,0,0.037-0.023,0.092-0.063
	c1.072-0.713,12.186-8.055,17.32-10.146c5.188-2.111,11.465-4.59,11.959-4.783c0.021-0.008,0.049-0.021,0.049-0.021l2.801-1.6
	c0,0,2.371-8.771,4.283-16.755c0-0.001,0-0.002,0-0.003c0.914-3.814,1.727-7.451,2.119-9.86c0.129-0.771,2.188-11.438,2.361-18.779
	C248.863,169.371,243.234,161.316,240.113,157.024z"/>
<path id="bind" fill="#FFFFFF" stroke="#9AB7CD" d="M167.718,114.991c0,0,4.673,47.884,5.058,57.338
	c1.098,26.838-1.846,41.666-1.846,41.666l-2.563-1.267c0,0,3.557-21.089,1.896-46.154c-0.969-14.576-5.277-56.672-5.277-56.672
	L167.718,114.991z"/>
<path id="area-1" fill="none" stroke="#9AB7CD" d="M168.367,212.73c0,0,3.557-21.09,1.896-46.155
	c-0.031-0.468-0.066-0.965-0.104-1.487c-22.854-17.014-27.324-25.647-33.211-41.341c-9.006-24.017-3.201-59.239-3.201-59.239
	s-5.389-6.132-9.807-8.807c-7.606-4.604-16.623-5.997-16.621-5.996c7.563,18.085,10.666,44.013,12.619,55.229
	c2.276,13.059,7.443,52.417,11.467,78.713c0,0,7.947,6.145,14.753,12.35C152.654,201.918,168.367,212.73,168.367,212.73z"/>
<path id="area-9" fill="none" stroke="#9AB7CD" d="M164.986,109.903c0,0-4.172-11.65-23.086-36.34l-3.002-3.4
	c0,0-4.946,36.515,3.002,54.233c8.274,18.446,21.655,28.867,27.638,32.938C167.98,139.156,164.986,109.903,164.986,109.903z"/>
<path id="area-6d" fill="#5782A3" stroke="#9AB7CD" d="M171.773,77.915c8.604,21.614,15.914,55.865,15.914,55.865l-4.754,2.11
	c0,0-12.562-35.76-32.976-61.978c-15.119-19.418-33.021-26.818-33.021-26.818s14.209-9.207,29.019-13.009
	C145.956,34.085,163.167,56.3,171.773,77.915z"/>
<path id="area-6e" fill="#5782A3" stroke="#9AB7CD" d="M206.852,125.272c0,0-11.942-33.09-23.271-51.36
	c-20.288-32.722-36.8-39.327-36.8-39.327s16.736,22.365,24.992,43.329c8.523,21.647,15.916,55.865,15.916,55.865L206.852,125.272"/>
<path id="area-6f" fill="#5782A3" stroke="#9AB7CD" d="M183.581,73.912c11.396,18.229,23.271,51.36,23.271,51.36l2.041-0.905
	c0,0-2.697-29.841-10.301-54.458c-7.605-24.616-28.421-37.825-28.421-37.825s-15.666-0.194-24.215,2.001
	C145.956,34.085,162.568,40.29,183.581,73.912z"/>
<path id="area-2a" fill="#5782A3" stroke="#9AB7CD" d="M196.689,189.333c-1.5-26.472-8.67-55.617-8.67-55.617l-10.549,4.683
	l-6.541,2.827c0.854,9.802,1.53,18.419,1.53,18.419l0.513,7.384c0,0,0.6,16.208,0.6,25.417c0,7.004-2.002,22.414-2.002,22.414
	l15.188,9.113c-0.01,0.047-0.021,0.101-0.03,0.146c0,0,4.07,2.739,10.84,6.312C197.752,224.533,197.912,210.918,196.689,189.333z"/>
<path id="area-2b" fill="#5782A3" stroke="#9AB7CD" d="M206.889,125.34l-18.869,8.375c0,0,7.17,29.145,8.67,55.617
	c1.224,21.585,1.063,35.201,0.881,41.095c4.056,2.14,9.078,4.574,14.775,6.898c0,0,0.037-0.023,0.092-0.062
	c1.072-0.711,12.183-8.053,17.32-10.146c5.188-2.111,11.465-4.589,11.959-4.783c0.021-0.008,0.049-0.021,0.049-0.021l2.801-1.6
	c0,0,2.371-8.771,4.283-16.755c-2.246-6.972-6.957-20.82-12.711-33.385C221.883,139.445,206.889,125.34,206.889,125.34z"/>
<path id="area-2c" fill="#5782A3" stroke="#9AB7CD" d="M253.33,175.318c-4.137-5.947-9.766-14.001-12.887-18.293
	c-5.334-7.333-14.213-20.341-19.334-26.667c-2.734-3.378-5.928-7.059-8.508-9.971l0.407,2.334l-0.063-0.07l-6.059,2.689
	c0,0,14.994,14.105,29.25,45.236c5.754,12.565,10.465,26.414,12.711,33.385c0.914-3.816,1.726-7.454,2.121-9.863
	C251.098,193.326,253.154,182.657,253.33,175.318z"/>
<g id="pinstripes">
	<path id="_x33_-1" fill="none" stroke="#9AB7CD" d="M221.882,304.588c0.001,0.001,2.726-23.939,1.927-39.15
		c-0.55-10.408-5.205-30.219-6.006-31.621"/>
	<path id="_x33_-2" fill="none" stroke="#9AB7CD" d="M241.418,222.811c0,0,9.438,15.127,11.609,26.818
		c2.602,14.008,0.896,36.146,0.896,36.146"/>
	<path id="_x39_-2" fill="#FFFFFF" stroke="#9AB7CD" d="M223.921,130.667c0,0,0.769-17.863-5.403-36.623
		c-5.002-15.21-17.41-27.02-17.41-27.02"/>
	<path id="_x39_-1" fill="none" stroke="#9AB7CD" d="M138.898,70.163c0,0-4.946,36.515,3.002,54.233
		c8.274,18.446,21.655,28.867,27.638,32.938"/>
	<path id="d-e" fill="none" stroke="#9AB7CD" d="M146.78,34.585c0,0,16.736,22.365,24.992,43.329
		c8.523,21.647,15.916,55.865,15.916,55.865"/>
	<path id="e-f" fill="none" stroke="#9AB7CD" d="M206.852,125.272c0,0-11.942-33.09-23.271-51.36
		c-20.288-32.722-36.8-39.327-36.8-39.327"/>
	<path id="a-b" fill="none" stroke="#9AB7CD" d="M188.02,133.715c0,0,7.17,29.145,8.67,55.617
		c1.224,21.585,1.063,35.201,0.881,41.095"/>
	<path id="b-c" fill="none" stroke="#9AB7CD" d="M248.85,203.96c-2.246-6.972-6.957-20.82-12.711-33.385
		c-14.256-31.13-29.25-45.235-29.25-45.235"/>
</g>
</svg>
