<?xml version="1.0" encoding="utf-8"?>
<!-- Generator: Adobe Illustrator 16.0.0, SVG Export Plug-In . SVG Version: 6.00 Build 0)  -->
<!DOCTYPE svg PUBLIC "-//W3C//DTD SVG 1.1//EN" "http://www.w3.org/Graphics/SVG/1.1/DTD/svg11.dtd">
<svg version="1.1" id="Слой_1" xmlns="http://www.w3.org/2000/svg" xmlns:xlink="http://www.w3.org/1999/xlink" x="0px" y="0px"
	 width="244px" height="400px" viewBox="0 0 244 400" enable-background="new 0 0 244 400" xml:space="preserve">
<path id="area-8" stroke="#9AB7CD" stroke-width="2" stroke-miterlimit="10" d="M204.523,351.629l-75.692,6.479v-58.48
	l75.692,13.602V351.629z"/>
<path stroke="#9AB7CD" stroke-width="2" stroke-miterlimit="10" d="M160.107,16.569c7.217-12.585,15.453-12.215,19.617-11.012
	c4.164,1.203,6.754,1.665,6.754,1.665s18.045-2.221,20.912-1.48c2.868,0.74,2.221,4.35,2.221,4.35s7.218,1.11,9.809,1.943
	c2.499,0.74,2.869,2.868,2.869,2.868s0,0-1.296,2.591c-1.296,2.591-5.644,0-5.644,0s0.463,5.182,1.108,7.958
	c0.741,2.775-2.685,2.684-2.685,2.684s2.592,7.402,4.258,11.938c1.666,4.534,0,6.848,0,6.848l-3.887,3.886v8.421h-5.646
	c0-34.33-27.297-39.696-38.401-28.686c0,0,4.721-5.459-0.74-6.015c-3.237-0.277-16.748-1.202-16.748-1.202l-2.867,1.11
	C155.85,17.493,160.107,16.569,160.107,16.569z M212.572,46.919c1.852-2.499,3.701-2.684,1.203-8.698
	c-2.498-6.014-3.887-10.733-3.887-10.733l-3.701-1.296l-0.74,3.146L212.572,46.919z M195.917,16.66l9.438,1.019l4.812,5.736
	l0.925-4.441l-2.683-4.997l-4.72-1.942l-4.35,1.295l-5.182-1.295L195.917,16.66z M173.523,19.9l6.293-1.759l8.513,0.093V14.44
	h-8.884l-9.623,3.979L173.523,19.9z M174.912,13.977l-1.943-1.942l-4.812,1.388l-1.019,2.498L174.912,13.977z"/>
<path fill="#5EBCFC" d="M193.432,7.001c-1.104,0.038-1.969,0.964-1.931,2.067c0.038,1.104,0.964,1.968,2.067,1.93L193.432,7.001z
	 M207.068,10.533c1.104-0.038,1.969-0.964,1.931-2.067c-0.038-1.104-0.964-1.968-2.067-1.93L207.068,10.533z M193.568,10.998
	l13.5-0.465l-0.137-3.997l-13.5,0.465L193.568,10.998z"/>
<path fill="#5EBCFC" d="M211.919,11.544c-1.08-0.231-2.144,0.457-2.375,1.537s0.457,2.143,1.537,2.374L211.919,11.544z
	 M218.081,16.955c1.08,0.231,2.144-0.456,2.375-1.536s-0.457-2.144-1.537-2.375L218.081,16.955z M211.081,15.455l7,1.5l0.838-3.911
	l-7-1.5L211.081,15.455z"/>
<path fill="#5EBCFC" d="M214.996,18.385c-0.064-0.826-0.785-1.444-1.611-1.381s-1.443,0.785-1.381,1.61L214.996,18.385z
	 M212.504,25.115c0.064,0.826,0.785,1.444,1.611,1.381s1.443-0.784,1.381-1.61L212.504,25.115z M212.004,18.615l0.5,6.5l2.992-0.229
	l-0.5-6.5L212.004,18.615z"/>
<path stroke="#9AB7CD" stroke-width="2" stroke-miterlimit="10" d="M204.521,145.559c-0.276-0.463-0.461-0.926-0.461-1.48v-1.203
	h0.461V145.559z"/>
<path id="area-12" stroke="#9AB7CD" stroke-width="2" stroke-miterlimit="10" d="M216.645,142.875h-8.051h-4.072h-0.461V63.39
	h12.584c0,0,7.402,0,7.402,9.253c0,4.997,0,55.427,0,60.517C224.047,140.285,216.645,142.875,216.645,142.875z"/>
<path stroke="#9AB7CD" stroke-width="2" stroke-miterlimit="10" d="M206.928,300.459h1.666v62.273h-3.701l-0.371-34.699V299.07
	C205.078,299.904,205.91,300.459,206.928,300.459z"/>
<path id="area-11" stroke="#9AB7CD" stroke-width="2" stroke-miterlimit="10" d="M204.061,218.197c0,0-3.701,0-3.701,8.791
	c0,4.626,0,56.261,0,60.238c0,9.16,3.701,9.16,3.701,9.16h19.063c0,0,4.626,0,4.626-7.865c0-3.424,0-57.555,0-61.627
	c0-8.697-4.626-8.697-4.626-8.697H204.061L204.061,218.197z"/>
<path stroke="#9AB7CD" stroke-width="2" stroke-miterlimit="10" d="M208.594,146.947c0,0,5.182-0.739,5.182,6.848
	c0,7.588,0,35.069,0,42.75c0,7.682-5.273,7.033-5.273,7.033L208.594,146.947z"/>
<path stroke="#9AB7CD" stroke-width="2" stroke-miterlimit="10" d="M208.688,310.081c0,0,5.182-0.739,5.182,6.849
	c0,7.587,0,31.184,0,38.863s-5.273,7.032-5.273,7.032L208.688,310.081z"/>
<path stroke="#9AB7CD" stroke-width="2" stroke-miterlimit="10" d="M221.826,214.588c0.277-3.794,0.369-7.68,0.369-7.68
	s0,0,0-29.333s-1.572-27.39-4.533-31.646l-1.018-1.295"/>
<path stroke="#9AB7CD" stroke-width="2" stroke-miterlimit="10" d="M215.164,146.577c2.961,4.164,4.256,1.758,4.256,31.091
	s0,29.333,0,29.333s0,3.331-0.277,7.125"/>
<path stroke="#9AB7CD" stroke-width="2" stroke-miterlimit="10" d="M227.748,276.77v-46.636c4.35,0,7.865,3.517,7.865,7.865
	l-2.775,30.813C232.189,273.902,232.098,276.77,227.748,276.77z"/>
<path stroke="#9AB7CD" stroke-width="2" stroke-miterlimit="10" d="M204.337,362.733c-2.313,9.9-6.94,13.973-6.94,19.154h24.799
	c0-6.849-8.233-11.938-8.233-31.369"/>
<path stroke="#9AB7CD" stroke-width="2" stroke-miterlimit="10" d="M126.518,380.406c0.647-0.647,1.11-1.203,1.387-1.666
	C127.628,379.297,127.165,379.852,126.518,380.406z"/>
<path stroke="#9AB7CD" stroke-width="2" stroke-miterlimit="10" d="M49.345,381.98c14.343,3.054,26.279,3.886,34.052,3.886
	c9.901,0,35.348,1.203,43.121-5.459c-1.666,2.961-4.998,9.347-15.177,12.308c-6.107,1.758-20.819,1.202-30.536,1.202
	C63.688,393.916,61.467,387.994,49.345,381.98z"/>
<path stroke="#9AB7CD" stroke-width="2" stroke-miterlimit="10" d="M128.831,377.538c0,0-0.278,0.463-0.833,1.202
	c0.277-0.37,0.37-0.832,0.555-1.295L128.831,377.538z"/>
<path id="area-3" stroke="#9AB7CD" stroke-width="2" stroke-miterlimit="10" d="M16.773,288.43c0.278-0.277,0.833,0,1.48,0.647
	c-2.498,9.438-3.701,19.246-3.146,29.24c1.018,17.857,6.107,32.94,12.122,44.784c-2.406,0.186-4.719,0.186-5.367-1.202
	C20.752,359.586,9,347.649,9,326.274C8.908,304.9,16.773,288.43,16.773,288.43z"/>
<path id="area-5" stroke="#9AB7CD" stroke-width="2" stroke-miterlimit="10" d="M81.454,133.53
	c11.196-36.644,43.397-78.375,65.606-106.875c3.979-4.257,7.03-3.146,7.03-3.146c5.646,0,14.065,1.018,15.177,1.11
	c1.11,0.092,5.183,1.48,0.739,6.015c-4.44,4.534-41.177,63.57-41.177,99.658c-7.495,9.993-27.853,27.111-39.234,37.013
	c-15.361,13.325-33.127,31.831-33.127,31.831C55.822,184.978,73.219,160.642,81.454,133.53z"/>
<path id="area-4" stroke="#9AB7CD" stroke-width="2" stroke-miterlimit="10" d="M18.254,289.077
	c1.48-18.414,3.887-42.103,9.346-50.062c6.014-8.328,23.596-31.461,26.187-35.625c7.958-12.677,27.667-28.13,35.625-35.255
	c19.895-17.952,39.419-37.846,39.419-37.846s0,236.421,0,245.581c0,0.556-0.093,1.109-0.278,1.665
	c-0.092,0.464-0.277,0.833-0.555,1.297c-0.37,0.463-0.833,1.018-1.389,1.664c-7.679,6.663-33.126,5.461-43.121,5.461
	c-13.14,0-44.416-3.425-49.228-10.55c-1.573-2.405-3.239-4.997-4.812-7.772c-0.74-1.389-1.573-2.868-2.313-4.35
	c-6.015-11.844-11.104-26.927-12.122-44.784C14.553,308.323,17.051,294.074,18.254,289.077z"/>
<path stroke="#9AB7CD" stroke-width="2" stroke-miterlimit="10" d="M75.902,144.633c1.851-3.886,3.701-7.587,5.552-11.104
	c-8.328,27.112-25.724,51.355-24.984,65.514c0,0,0,0-2.684,4.256c-0.463,0.741-0.925,1.573-1.48,2.313
	C51.473,194.231,65.446,173.874,75.902,144.633z"/>
<g id="binding">
	<path stroke="#9AB7CD" stroke-width="2" stroke-miterlimit="10" d="M204.523,356.256l-75.692,6.478v-4.626l75.692-6.479V356.256z"
		/>
	<path stroke="#9AB7CD" stroke-width="2" stroke-miterlimit="10" d="M204.523,308.602v4.626l-75.692-13.602v-4.627L204.523,308.602z
		"/>
	<path stroke="#9AB7CD" stroke-width="2" stroke-miterlimit="10" d="M206.928,59.319h6.756c1.572,0,2.869,1.295,2.869,2.868v1.203
		h-12.492v-1.203C204.061,60.614,205.355,59.319,206.928,59.319z"/>
	<path stroke="#9AB7CD" stroke-width="2" stroke-miterlimit="10" d="M208.594,142.875h8.051v1.203c0,1.572-1.295,2.868-2.869,2.868
		h-5.182h-1.666c-1.018,0-1.943-0.555-2.406-1.388v-2.684L208.594,142.875L208.594,142.875z"/>
	<path stroke="#9AB7CD" stroke-width="2" stroke-miterlimit="10" d="M204.521,296.387h4.072h14.527v1.203
		c0,1.573-1.296,2.869-2.869,2.869h-11.658h-1.666c-1.019,0-1.943-0.557-2.406-1.389c-0.276-0.463-0.461-0.927-0.461-1.48v-1.203
		H204.521L204.521,296.387z"/>
	<path stroke="#9AB7CD" stroke-width="2" stroke-miterlimit="10" d="M220.253,214.126h-11.659h-1.666
		c-1.018,0-1.943,0.556-2.406,1.388c-0.275,0.463-0.461,0.926-0.461,1.48v1.201h0.461h4.072h14.528v-1.201
		C223.122,215.421,221.826,214.126,220.253,214.126z"/>
	<path stroke="#9AB7CD" stroke-width="2" stroke-miterlimit="10" d="M170.008,30.633c11.012-11.012,38.401-5.645,38.401,28.686
		h-1.388h-1.574c0-10.826-4.441-30.443-22.577-30.443c-13.048,0-18.877,18.321-30.722,40.252
		c-11.475,21.282-19.617,45.804-19.617,65.05c0,14.713,0,161.563,0,161.563l-3.7-0.647V130.383
		C128.831,94.203,165.566,35.074,170.008,30.633z"/>
	<path stroke="#9AB7CD" stroke-width="2" stroke-miterlimit="10" d="M51.103,207.648c-1.758,2.775-17.581,23.041-23.503,31.369
		c1.48-4.258,3.146-9.347,5.089-15.084C39.444,216.902,42.498,213.663,51.103,207.648z"/>
</g>
<path id="area-2" stroke="#9AB7CD" stroke-width="2" stroke-miterlimit="10" d="M52.306,205.705
	c-0.37,0.646-0.833,1.296-1.203,1.941c-8.605,6.017-11.659,9.254-18.506,16.287c7.495-22.484,31.369-54.225,43.305-79.301
	C65.446,173.874,51.474,194.231,52.306,205.705z"/>
<path stroke="#9AB7CD" stroke-width="2" stroke-miterlimit="10" d="M208.594,214.126c0,0-1.943-0.093-2.684,0.185
	c-0.741,0.278-1.389,1.11-1.389,1.11v-69.862c0.463,0.833,1.389,1.388,2.406,1.388h1.665L208.594,214.126L208.594,214.126z"/>
<path stroke="#9AB7CD" stroke-width="2" stroke-miterlimit="10" d="M213.591,63.39v79.485"/>
</svg>
